<svg width="273" height="40" viewBox="0 0 273 40" fill="none" xmlns="http://www.w3.org/2000/svg">
<path d="M51.888 3.4H55.776V19.768L80.784 3.4H84.624V37H79.248V10.888L50.352 29.8V10.888L10.56 37H0.672L51.888 3.4ZM144.912 0.808V39.256L125.088 30.088L130.464 26.584L139.488 30.76V10.84L99.648 37H89.76L144.912 0.808ZM181.721 12.28V37H176.297V15.832L181.721 12.28ZM214.265 3.4L206.297 8.68H154.697L162.713 3.4H214.265ZM215.659 20.2L221.083 16.648V20.776H253.291L245.275 26.008H221.083V31.72H272.635L264.619 37H215.659V20.2ZM233.323 8.632L241.339 3.4H272.635L264.619 8.632H233.323Z" fill="white"/>
</svg>
