<svg width="234" height="41" viewBox="0 0 234 41" fill="none" xmlns="http://www.w3.org/2000/svg">
<path d="M20.7018 40.848C9.08575 40.848 0.54175 32.352 0.54175 20.736C0.54175 9.12 9.08575 0.623998 20.7018 0.623998C30.6378 0.623998 37.5018 6.384 39.5178 14.448H34.3818C32.7498 9.024 27.8058 5.28 20.7978 5.28C11.9658 5.28 5.58175 11.712 5.58175 20.736C5.58175 29.712 12.0138 36.192 20.7978 36.192C27.9978 36.192 33.3738 31.968 34.7658 26.496H39.9018C38.2218 34.512 30.8778 40.848 20.7018 40.848ZM46.3311 1.536H73.6431V6H51.3711V18.096H71.9631V22.56H51.3711V35.52H74.0751V39.984H46.3311V1.536ZM80.5499 1.536H84.9659L99.7979 27.648L114.63 1.536H119.046V39.984H114.006V11.616L101.622 33.504H97.9739L85.5899 11.616V39.984H80.5499V1.536ZM127.237 1.536H154.549V6H132.277V18.096H152.869V22.56H132.277V35.52H154.981V39.984H127.237V1.536ZM161.456 1.536H166.16L189.44 31.488V1.296H194.528V39.744H189.776L166.496 9.792V39.984H161.456V1.536ZM233.089 6.048H219.313V39.984H214.273V6.048H200.449V1.536H233.089V6.048Z" fill="white"/>
</svg>
